<?xml version="1.0" encoding="UTF-8" standalone="no"?>
<!DOCTYPE svg PUBLIC "-//W3C//DTD SVG 1.1//EN" "http://www.w3.org/Graphics/SVG/1.1/DTD/svg11.dtd">
<svg xmlns="http://www.w3.org/2000/svg" version="1.1" viewBox="0.00 0.00 500.00 500.00">
<g stroke-width="2.00" fill="none" stroke-linecap="butt">
<path stroke="#547797" vector-effect="non-scaling-stroke" d="
  M 280.76 106.16
  Q 280.50 109.85 279.76 112.62
  Q 279.41 113.93 278.72 114.27
  Q 277.87 114.68 276.57 114.45
  Q 237.17 107.44 200.33 123.18
  Q 199.23 123.65 198.07 123.72
  Q 197.56 123.76 197.21 123.38
  C 195.47 121.49 194.87 118.89 193.94 116.28"
/>
<path stroke="#547797" vector-effect="non-scaling-stroke" d="
  M 289.20 108.56
  L 287.84 115.42
  A 1.68 1.67 14.4 0 0 288.99 117.35
  Q 302.51 121.53 315.74 128.73
  C 320.90 131.54 325.10 134.95 330.30 137.51
  A 1.39 1.38 -54.9 0 0 331.90 137.23
  L 334.95 134.06"
/>
<path stroke="#54718c" vector-effect="non-scaling-stroke" d="
  M 339.75 136.90
  L 337.42 140.72
  A 1.68 1.67 -52.6 0 0 337.69 142.81
  Q 349.92 154.41 355.27 159.99
  Q 360.46 165.40 363.73 170.50
  Q 364.44 171.62 367.49 176.06
  Q 370.72 180.77 371.25 181.64
  Q 378.87 194.16 383.84 207.89
  C 385.38 212.16 385.99 216.93 387.70 221.10
  Q 387.97 221.77 387.34 221.41
  L 383.85 219.39
  Q 382.86 218.82 382.58 217.71
  Q 379.77 206.55 376.56 199.46
  Q 373.09 191.79 367.83 182.88
  Q 361.51 172.16 352.40 162.26
  Q 350.91 160.63 347.22 157.13
  Q 344.55 154.59 342.05 151.96"
/>
<path stroke="#547797" vector-effect="non-scaling-stroke" d="
  M 342.05 151.96
  Q 332.32 142.92 320.97 136.08
  Q 309.50 129.16 298.42 124.64
  Q 283.33 118.50 267.44 116.34
  C 246.36 113.46 224.56 117.32 205.00 125.20
  C 198.82 127.69 190.88 132.28 185.72 134.80
  Q 181.36 136.93 177.91 139.54
  Q 175.95 141.01 170.68 145.18
  Q 158.43 154.87 148.59 167.25"
/>
<path stroke="#547797" vector-effect="non-scaling-stroke" d="
  M 145.12 166.44
  Q 149.47 160.02 151.39 158.38
  Q 154.03 156.13 156.37 153.51
  Q 159.85 149.60 161.09 148.43
  Q 173.48 136.73 189.56 128.63
  Q 192.76 127.02 191.15 123.70
  Q 190.12 121.60 188.83 119.33"
/>
<path stroke="#052443" vector-effect="non-scaling-stroke" d="
  M 342.05 151.96
  L 322.20 147.48"
/>
<path stroke="#3f566e" vector-effect="non-scaling-stroke" d="
  M 367.85 310.83
  Q 366.19 313.56 364.68 316.38
  Q 362.86 319.78 361.29 321.74
  Q 353.89 330.96 346.84 338.46
  Q 343.77 341.71 339.11 345.43
  Q 333.58 349.83 330.87 351.85
  Q 322.77 357.90 314.94 362.29
  Q 312.44 363.70 309.36 364.82
  C 304.79 366.48 299.73 368.96 295.12 370.52
  Q 278.57 376.14 263.51 377.49
  Q 242.90 379.33 222.12 373.88
  C 207.49 370.04 191.15 363.43 179.37 355.01
  Q 172.65 350.21 163.28 342.41
  Q 159.02 338.87 155.01 333.98
  Q 153.10 331.64 147.21 324.82
  Q 143.79 320.85 140.76 315.93
  Q 137.93 311.32 135.28 306.51"
/>
<path stroke="#3f566e" vector-effect="non-scaling-stroke" d="
  M 131.85 308.05
  Q 136.58 316.91 141.26 323.24
  Q 147.57 331.77 156.93 341.33
  Q 165.10 349.68 182.29 361.24
  C 186.08 363.79 190.15 365.37 195.37 367.89
  Q 201.39 370.78 205.38 372.27
  C 224.39 379.35 244.75 382.81 264.76 380.69
  Q 284.79 378.57 303.64 370.89
  C 307.76 369.21 311.54 367.08 315.42 365.41
  Q 319.89 363.48 323.94 360.78
  Q 338.40 351.18 347.61 342.33
  Q 353.64 336.56 361.52 326.76
  Q 367.41 319.45 371.02 312.67"
/>
<path stroke="#072753" vector-effect="non-scaling-stroke" d="
  M 245.30 322.15
  Q 244.23 323.83 242.60 324.96
  Q 240.11 326.70 239.59 327.26
  Q 234.08 333.13 234.17 340.57"
/>
<path stroke="#546d85" vector-effect="non-scaling-stroke" d="
  M 234.17 340.57
  Q 233.39 348.96 236.16 353.30
  Q 242.43 363.10 252.58 362.63
  Q 259.78 362.29 264.58 357.68
  Q 269.63 352.83 270.05 344.73"
/>
<path stroke="#072753" vector-effect="non-scaling-stroke" d="
  M 270.05 344.73
  Q 272.66 333.11 263.23 325.54
  Q 262.14 324.65 259.50 323.43
  Q 257.54 322.51 255.77 321.24"
/>
<path stroke="#567eaf" vector-effect="non-scaling-stroke" d="
  M 270.05 344.73
  Q 267.83 351.77 262.09 356.82
  Q 257.89 360.52 252.26 359.93
  Q 239.56 358.62 236.17 346.48
  Q 235.40 343.74 234.17 340.57"
/>
<path stroke="#074d81" vector-effect="non-scaling-stroke" d="
  M 268.12 163.64
  A 18.54 18.16 -88.8 0 0 269.47 150.08"
/>
<path stroke="#267b93" vector-effect="non-scaling-stroke" d="
  M 269.47 150.08
  A 18.51 18.13 -84.4 0 0 259.65 138.38
  A 18.50 18.13 -84.4 0 0 240.75 140.74
  A 18.48 18.12 -83.6 0 0 233.89 155.98
  A 18.53 18.17 -84.7 0 0 240.21 169.29
  A 18.48 18.12 -82.4 0 0 250.03 173.59
  A 18.54 18.16 -83.3 0 0 261.28 171.06
  A 18.58 18.19 -84.7 0 0 268.12 163.64"
/>
<path stroke="#27aadc" vector-effect="non-scaling-stroke" d="
  M 269.47 150.08
  Q 268.71 150.86 268.09 150.90
  Q 267.57 150.93 267.34 150.46
  Q 262.66 140.45 251.71 140.08
  Q 249.53 140.01 247.46 141.02
  Q 246.71 141.39 243.34 142.75
  Q 241.08 143.67 239.91 145.62
  Q 237.75 149.23 236.95 153.47
  Q 236.17 157.66 237.79 161.49
  Q 240.81 168.64 248.33 170.52
  Q 255.48 172.30 261.90 167.45
  Q 265.13 165.01 266.96 162.28
  A 0.43 0.43 0.0 0 1 267.73 162.39
  L 268.12 163.64"
/>
<path stroke="#55a0d5" vector-effect="non-scaling-stroke" d="
  M 245.2535 147.3643
  A 0.95 0.77 -40.4 0 0 244.0309 147.3936
  A 0.95 0.77 -40.4 0 0 243.8065 148.5957
  A 0.95 0.77 -40.4 0 0 245.0291 148.5664
  A 0.95 0.77 -40.4 0 0 245.2535 147.3643"
/>
<path stroke="#27aadc" vector-effect="non-scaling-stroke" d="
  M 258.1548 154.4050
  A 5.90 5.06 -5.3 0 0 251.8126 149.9116
  A 5.90 5.06 -5.3 0 0 246.4052 155.4950
  A 5.90 5.06 -5.3 0 0 252.7474 159.9884
  A 5.90 5.06 -5.3 0 0 258.1548 154.4050"
/>
<path stroke="#074d81" vector-effect="non-scaling-stroke" d="
  M 194.31 188.47
  A 10.56 10.26 89.9 0 0 197.07 179.52"
/>
<path stroke="#267b93" vector-effect="non-scaling-stroke" d="
  M 197.07 179.52
  A 10.54 10.23 89.4 0 0 191.87 171.88
  A 10.55 10.25 87.3 0 0 181.15 172.42
  A 10.56 10.26 89.3 0 0 176.69 181.26
  A 10.54 10.24 89.7 0 0 180.60 189.40
  A 10.55 10.25 88.9 0 0 194.31 188.47"
/>
<path stroke="#27aadc" vector-effect="non-scaling-stroke" d="
  M 197.07 179.52
  Q 195.66 178.38 194.43 177.10
  Q 192.78 175.38 191.77 174.76
  Q 185.91 171.13 181.02 175.48
  Q 179.05 177.23 178.55 179.61
  C 177.68 183.80 180.14 187.85 184.08 189.49
  Q 188.39 191.27 193.61 187.72
  Q 194.13 187.36 194.09 187.97
  Q 194.09 188.11 194.31 188.47"
/>
<path stroke="#074d81" vector-effect="non-scaling-stroke" d="
  M 323.69 188.54
  A 10.59 10.36 -65.9 0 0 326.19 177.27"
/>
<path stroke="#267b93" vector-effect="non-scaling-stroke" d="
  M 326.19 177.27
  A 10.57 10.33 -66.3 0 0 319.36 170.92
  A 10.58 10.35 -66.1 0 0 309.55 173.30
  A 10.60 10.37 -66.6 0 0 306.18 183.06
  A 10.59 10.35 -66.1 0 0 313.10 191.15
  A 10.59 10.37 -66.1 0 0 323.69 188.54"
/>
<path stroke="#27aadc" vector-effect="non-scaling-stroke" d="
  M 326.19 177.27
  Q 324.68 177.40 323.02 175.84
  Q 321.20 174.13 320.37 173.83
  C 316.57 172.48 311.91 173.51 309.56 176.90
  C 306.24 181.68 308.37 187.22 313.51 189.30
  Q 317.96 191.11 323.69 188.54"
/>
<path stroke="#3f566e" vector-effect="non-scaling-stroke" d="
  M 157.2534 290.9347
  A 1.66 0.63 54.1 0 0 156.7903 289.2206
  A 1.66 0.63 54.1 0 0 155.3066 288.2453
  A 1.66 0.63 54.1 0 0 155.7697 289.9594
  A 1.66 0.63 54.1 0 0 157.2534 290.9347"
/>
<path stroke="#072753" vector-effect="non-scaling-stroke" d="
  M 196.75 323.14
  A 10.80 10.39 -70.4 0 0 197.50 318.39"
/>
<path stroke="#26778c" vector-effect="non-scaling-stroke" d="
  M 197.50 318.39
  A 10.76 10.37 -77.0 0 0 194.34 311.40
  A 10.73 10.35 -78.2 0 0 184.68 308.88
  A 10.76 10.37 -77.2 0 0 178.32 313.78
  A 10.73 10.35 -77.0 0 0 177.69 323.78
  A 10.74 10.35 -77.7 0 0 187.99 329.91
  A 10.71 10.36 -76.9 0 0 196.75 323.14"
/>
<path stroke="#2888b6" vector-effect="non-scaling-stroke" d="
  M 197.50 318.39
  Q 195.91 316.89 194.73 315.37
  Q 193.06 313.22 191.89 312.55
  C 187.48 310.02 181.92 311.43 179.45 316.14
  C 176.69 321.41 180.66 327.29 186.01 328.15
  Q 191.57 329.04 196.75 323.14"
/>
<path stroke="#072753" vector-effect="non-scaling-stroke" d="
  M 325.64 324.82
  A 10.73 10.42 -79.4 0 0 326.91 316.63"
/>
<path stroke="#26778c" vector-effect="non-scaling-stroke" d="
  M 326.91 316.63
  A 10.72 10.43 -77.8 0 0 322.63 310.35
  A 10.82 10.50 -77.3 0 0 317.99 308.63
  A 10.73 10.43 -78.4 0 0 307.86 313.82
  A 10.74 10.43 -78.2 0 0 310.53 327.97
  A 10.80 10.44 -85.7 0 0 315.25 329.92
  A 10.72 10.42 -78.3 0 0 325.64 324.82"
/>
<path stroke="#2888b6" vector-effect="non-scaling-stroke" d="
  M 326.91 316.63
  Q 326.82 316.91 326.73 317.09
  Q 326.54 317.49 326.19 317.23
  Q 325.60 316.79 325.44 316.51
  Q 321.52 309.54 314.82 311.59
  C 311.17 312.70 309.31 314.95 308.48 318.78
  Q 307.77 322.05 309.77 324.54
  Q 311.89 327.18 315.27 327.90
  Q 321.14 329.15 324.65 324.33
  A 0.43 0.43 0.0 0 1 325.35 324.35
  L 325.64 324.82"
/>
<path stroke="#095aa4" vector-effect="non-scaling-stroke" d="
  M 313.78 321.79
  A 4.14 3.65 -66.3 0 0 314.88 323.61
  A 4.13 3.67 -65.7 0 0 320.45 322.41
  A 4.13 3.66 -65.6 0 0 319.79 317.03
  A 4.19 3.71 -69.2 0 0 318.52 316.41"
/>
<path stroke="#567eaf" vector-effect="non-scaling-stroke" d="
  M 318.52 316.41
  A 4.13 3.66 -65.5 0 0 313.78 321.79"
/>
<path stroke="#55a0d5" vector-effect="non-scaling-stroke" d="
  M 318.52 316.41
  Q 318.79 316.47 318.94 316.59
  Q 319.41 316.94 318.96 317.33
  L 313.78 321.79"
/>
<path stroke="#095aa4" vector-effect="non-scaling-stroke" d="
  M 183.62 321.97
  A 3.96 3.61 -18.6 0 0 190.62 321.54
  A 3.95 3.60 -19.3 0 0 188.98 316.82"
/>
<path stroke="#2888b6" vector-effect="non-scaling-stroke" d="
  M 188.98 316.82
  A 3.97 3.61 -18.4 0 0 183.71 318.46
  A 3.97 3.61 -19.7 0 0 183.62 321.97"
/>
<path stroke="#27aadc" vector-effect="non-scaling-stroke" d="
  M 188.98 316.82
  Q 189.28 317.95 186.66 319.05
  Q 186.21 319.24 185.88 319.59
  L 183.62 321.97"
/>
<path stroke="#2888b6" vector-effect="non-scaling-stroke" d="
  M 240.10 338.15
  C 243.35 331.62 249.62 328.70 256.78 330.63
  C 260.19 331.54 262.98 335.40 264.43 338.38
  Q 265.36 340.30 265.45 338.09
  C 265.50 337.04 264.78 334.97 264.22 334.14
  Q 257.61 324.24 247.02 328.31
  C 242.43 330.08 239.01 333.49 238.85 338.40
  A 0.42 0.42 0.0 0 0 239.54 338.74
  Q 239.99 338.37 240.10 338.15"
/>
<path stroke="#095aa4" vector-effect="non-scaling-stroke" d="
  M 258.5968 342.0691
  A 5.86 5.35 -5.1 0 0 252.2844 337.2612
  A 5.86 5.35 -5.1 0 0 246.9232 343.1109
  A 5.86 5.35 -5.1 0 0 253.2356 347.9188
  A 5.86 5.35 -5.1 0 0 258.5968 342.0691"
/>
</g>
<path fill="#05294d" d="
  M 280.76 106.16
  Q 280.50 109.85 279.76 112.62
  Q 279.41 113.93 278.72 114.27
  Q 277.87 114.68 276.57 114.45
  Q 237.17 107.44 200.33 123.18
  Q 199.23 123.65 198.07 123.72
  Q 197.56 123.76 197.21 123.38
  C 195.47 121.49 194.87 118.89 193.94 116.28
  Q 235.52 96.95 280.76 106.16
  Z"
/>
<path fill="#a2c4e0" d="
  M 289.20 108.56
  L 287.84 115.42
  A 1.68 1.67 14.4 0 0 288.99 117.35
  Q 302.51 121.53 315.74 128.73
  C 320.90 131.54 325.10 134.95 330.30 137.51
  A 1.39 1.38 -54.9 0 0 331.90 137.23
  L 334.95 134.06
  Q 336.21 136.44 339.75 136.90
  L 337.42 140.72
  A 1.68 1.67 -52.6 0 0 337.69 142.81
  Q 349.92 154.41 355.27 159.99
  Q 360.46 165.40 363.73 170.50
  Q 364.44 171.62 367.49 176.06
  Q 370.72 180.77 371.25 181.64
  Q 378.87 194.16 383.84 207.89
  C 385.38 212.16 385.99 216.93 387.70 221.10
  Q 387.97 221.77 387.34 221.41
  L 383.85 219.39
  Q 382.86 218.82 382.58 217.71
  Q 379.77 206.55 376.56 199.46
  Q 373.09 191.79 367.83 182.88
  Q 361.51 172.16 352.40 162.26
  Q 350.91 160.63 347.22 157.13
  Q 344.55 154.59 342.05 151.96
  Q 332.32 142.92 320.97 136.08
  Q 309.50 129.16 298.42 124.64
  Q 283.33 118.50 267.44 116.34
  C 246.36 113.46 224.56 117.32 205.00 125.20
  C 198.82 127.69 190.88 132.28 185.72 134.80
  Q 181.36 136.93 177.91 139.54
  Q 175.95 141.01 170.68 145.18
  Q 158.43 154.87 148.59 167.25
  Q 147.08 165.86 145.12 166.44
  Q 149.47 160.02 151.39 158.38
  Q 154.03 156.13 156.37 153.51
  Q 159.85 149.60 161.09 148.43
  Q 173.48 136.73 189.56 128.63
  Q 192.76 127.02 191.15 123.70
  Q 190.12 121.60 188.83 119.33
  Q 193.15 118.53 193.94 116.28
  C 194.87 118.89 195.47 121.49 197.21 123.38
  Q 197.56 123.76 198.07 123.72
  Q 199.23 123.65 200.33 123.18
  Q 237.17 107.44 276.57 114.45
  Q 277.87 114.68 278.72 114.27
  Q 279.41 113.93 279.76 112.62
  Q 280.50 109.85 280.76 106.16
  L 289.20 108.56
  Z"
/>
<path fill="#05294d" d="
  M 334.95 134.06
  L 331.90 137.23
  A 1.39 1.38 -54.9 0 1 330.30 137.51
  C 325.10 134.95 320.90 131.54 315.74 128.73
  Q 302.51 121.53 288.99 117.35
  A 1.68 1.67 14.4 0 1 287.84 115.42
  L 289.20 108.56
  Q 299.24 111.13 309.13 115.38
  Q 323.05 121.37 335.30 130.29
  Q 335.71 130.59 335.73 131.10
  Q 335.78 132.57 334.95 134.06
  Z"
/>
<path fill="#05294d" d="
  M 342.05 151.96
  L 322.20 147.48
  Q 302.46 133.76 279.29 127.98
  Q 269.24 125.47 258.07 124.81
  Q 247.62 124.19 238.11 125.59
  Q 208.33 129.97 185.52 145.29
  Q 169.37 156.14 158.14 169.90
  Q 148.81 181.34 141.97 194.18
  Q 140.44 197.05 137.19 196.59
  Q 133.60 196.07 133.92 192.28
  Q 134.10 190.18 137.04 184.76
  Q 142.10 175.43 148.59 167.25
  Q 158.43 154.87 170.68 145.18
  Q 175.95 141.01 177.91 139.54
  Q 181.36 136.93 185.72 134.80
  C 190.88 132.28 198.82 127.69 205.00 125.20
  C 224.56 117.32 246.36 113.46 267.44 116.34
  Q 283.33 118.50 298.42 124.64
  Q 309.50 129.16 320.97 136.08
  Q 332.32 142.92 342.05 151.96
  Z"
/>
<path fill="#05294d" d="
  M 188.83 119.33
  Q 190.12 121.60 191.15 123.70
  Q 192.76 127.02 189.56 128.63
  Q 173.48 136.73 161.09 148.43
  Q 159.85 149.60 156.37 153.51
  Q 154.03 156.13 151.39 158.38
  Q 149.47 160.02 145.12 166.44
  Q 141.63 170.17 138.62 174.63
  Q 132.83 183.22 128.28 193.49
  Q 126.86 196.71 123.66 196.59
  C 120.45 196.46 118.57 194.04 119.58 190.91
  Q 120.63 187.66 121.38 186.16
  Q 132.28 164.46 149.89 146.51
  Q 156.79 139.48 164.92 133.36
  Q 173.97 126.55 184.35 120.64
  Q 186.62 119.35 188.83 119.33
  Z"
/>
<path fill="#051e38" d="
  M 322.20 147.48
  L 342.05 151.96
  Q 344.55 154.59 347.22 157.13
  Q 350.91 160.63 352.40 162.26
  Q 361.51 172.16 367.83 182.88
  Q 373.09 191.79 376.56 199.46
  Q 379.77 206.55 382.58 217.71
  Q 382.86 218.82 383.85 219.39
  L 387.34 221.41
  Q 387.97 221.77 387.70 221.10
  C 385.99 216.93 385.38 212.16 383.84 207.89
  Q 378.87 194.16 371.25 181.64
  Q 370.72 180.77 367.49 176.06
  Q 364.44 171.62 363.73 170.50
  Q 360.46 165.40 355.27 159.99
  Q 349.92 154.41 337.69 142.81
  A 1.68 1.67 -52.6 0 1 337.42 140.72
  L 339.75 136.90
  Q 341.05 135.99 342.49 135.95
  Q 342.99 135.93 343.39 136.25
  Q 357.41 147.39 368.59 161.66
  Q 392.17 191.74 398.86 229.07
  Q 399.56 232.96 399.38 237.66
  Q 399.34 239.03 397.64 239.90
  C 392.12 242.75 389.70 236.72 387.29 233.45
  Q 382.08 226.40 374.46 224.61
  Q 372.03 224.03 359.99 224.03
  Q 341.15 224.03 322.31 224.06
  Q 318.45 224.07 317.12 223.44
  Q 314.73 222.32 312.49 220.09
  Q 295.67 203.41 282.81 191.43
  A 3.76 3.75 66.4 0 0 280.26 190.43
  L 255.90 190.43
  A 1.66 1.66 0.0 0 1 254.24 188.77
  L 254.24 181.18
  A 1.85 1.84 0.0 0 0 252.39 179.34
  L 251.98 179.34
  Q 250.23 179.34 250.17 181.08
  Q 250.10 183.03 250.03 187.51
  C 249.97 190.73 248.13 190.36 245.44 190.39
  Q 234.28 190.51 222.87 190.45
  A 3.11 3.09 23.7 0 0 220.74 191.27
  L 195.44 214.60
  A 0.63 0.62 64.0 0 0 195.25 215.17
  Q 195.39 215.92 196.06 215.91
  Q 211.40 215.71 226.73 215.85
  Q 228.39 215.86 230.25 215.52
  C 234.97 214.67 239.46 216.05 240.85 220.83
  C 242.28 225.79 239.31 229.75 234.48 230.99
  Q 232.64 231.46 230.56 230.48
  Q 226.46 228.54 225.28 225.00
  A 1.54 1.54 0.0 0 0 223.82 223.95
  Q 178.94 224.13 135.74 223.97
  Q 123.60 223.92 117.13 232.65
  Q 116.39 233.65 113.74 238.46
  Q 112.46 240.77 108.82 240.46
  Q 104.71 240.11 105.26 235.55
  Q 106.84 222.60 111.12 210.15
  C 112.18 207.05 114.29 204.40 117.69 205.79
  Q 120.43 206.90 120.15 209.74
  Q 120.00 211.25 117.63 219.36
  Q 117.04 221.41 118.97 220.44
  L 121.20 219.32
  Q 123.04 218.41 123.51 216.22
  C 123.99 214.05 125.02 209.30 126.59 206.26
  C 128.19 203.14 131.86 202.59 134.36 205.13
  Q 135.34 206.13 134.96 207.75
  Q 134.66 209.06 133.44 214.77
  A 0.76 0.76 0.0 0 0 134.18 215.69
  L 146.51 215.69
  A 1.06 1.06 0.0 0 0 147.57 214.63
  L 147.57 209.02
  Q 147.57 208.52 147.30 208.09
  Q 145.30 204.81 145.35 203.73
  Q 145.68 197.12 152.22 197.69
  Q 156.67 198.08 157.10 202.54
  Q 157.21 203.70 155.87 207.06
  Q 154.40 210.77 155.16 214.93
  A 0.83 0.82 84.5 0 0 155.97 215.60
  Q 161.62 215.55 180.49 215.68
  Q 182.54 215.70 184.39 213.88
  Q 198.25 200.33 215.72 184.21
  Q 217.54 182.54 219.50 182.48
  Q 226.35 182.29 240.67 182.33
  Q 241.93 182.34 242.09 181.09
  Q 242.32 179.14 242.04 178.28
  Q 241.88 177.81 241.45 177.55
  Q 230.65 171.05 229.44 159.54
  C 228.78 153.32 231.04 145.13 235.80 140.39
  Q 242.34 133.87 251.09 133.63
  Q 265.20 133.23 271.76 145.06
  C 275.13 151.14 275.60 159.80 272.92 166.10
  Q 269.90 173.18 262.31 177.24
  Q 261.85 177.49 261.71 177.99
  Q 261.20 179.88 261.70 181.57
  A 1.15 1.14 81.3 0 0 262.79 182.38
  L 284.15 182.38
  A 5.17 5.17 0.0 0 1 287.73 183.82
  L 319.68 214.47
  A 4.20 4.19 -22.9 0 0 322.60 215.65
  L 346.55 215.65
  A 0.70 0.70 0.0 0 0 347.24 215.04
  Q 347.77 211.41 347.48 208.84
  C 347.28 207.12 345.02 205.08 345.35 203.28
  Q 346.39 197.76 351.19 197.59
  C 356.35 197.41 358.79 202.29 356.06 206.58
  C 354.43 209.12 354.59 211.84 354.85 214.61
  A 1.18 1.17 -2.7 0 0 356.02 215.67
  L 371.41 215.67
  A 0.81 0.81 0.0 0 0 372.19 214.62
  Q 365.14 191.33 350.36 174.13
  Q 346.87 170.06 344.79 167.55
  Q 341.72 163.83 338.50 160.89
  Q 330.76 153.81 322.20 147.48
  Z
  M 268.12 163.64
  A 18.54 18.16 -88.8 0 0 269.47 150.08
  A 18.51 18.13 -84.4 0 0 259.65 138.38
  A 18.50 18.13 -84.4 0 0 240.75 140.74
  A 18.48 18.12 -83.6 0 0 233.89 155.98
  A 18.53 18.17 -84.7 0 0 240.21 169.29
  A 18.48 18.12 -82.4 0 0 250.03 173.59
  A 18.54 18.16 -83.3 0 0 261.28 171.06
  A 18.58 18.19 -84.7 0 0 268.12 163.64
  Z"
/>
<path fill="#46d8ee" d="
  M 269.47 150.08
  Q 268.71 150.86 268.09 150.90
  Q 267.57 150.93 267.34 150.46
  Q 262.66 140.45 251.71 140.08
  Q 249.53 140.01 247.46 141.02
  Q 246.71 141.39 243.34 142.75
  Q 241.08 143.67 239.91 145.62
  Q 237.75 149.23 236.95 153.47
  Q 236.17 157.66 237.79 161.49
  Q 240.81 168.64 248.33 170.52
  Q 255.48 172.30 261.90 167.45
  Q 265.13 165.01 266.96 162.28
  A 0.43 0.43 0.0 0 1 267.73 162.39
  L 268.12 163.64
  A 18.58 18.19 -84.7 0 1 261.28 171.06
  A 18.54 18.16 -83.3 0 1 250.03 173.59
  A 18.48 18.12 -82.4 0 1 240.21 169.29
  A 18.53 18.17 -84.7 0 1 233.89 155.98
  A 18.48 18.12 -83.6 0 1 240.75 140.74
  A 18.50 18.13 -84.4 0 1 259.65 138.38
  A 18.51 18.13 -84.4 0 1 269.47 150.08
  Z"
/>
<path fill="#087cca" d="
  M 269.47 150.08
  A 18.54 18.16 -88.8 0 1 268.12 163.64
  L 267.73 162.39
  A 0.43 0.43 0.0 0 0 266.96 162.28
  Q 265.13 165.01 261.90 167.45
  Q 255.48 172.30 248.33 170.52
  Q 240.81 168.64 237.79 161.49
  Q 236.17 157.66 236.95 153.47
  Q 237.75 149.23 239.91 145.62
  Q 241.08 143.67 243.34 142.75
  Q 246.71 141.39 247.46 141.02
  Q 249.53 140.01 251.71 140.08
  Q 262.66 140.45 267.34 150.46
  Q 267.57 150.93 268.09 150.90
  Q 268.71 150.86 269.47 150.08
  Z
  M 245.2535 147.3643
  A 0.95 0.77 -40.4 0 0 244.0309 147.3936
  A 0.95 0.77 -40.4 0 0 243.8065 148.5957
  A 0.95 0.77 -40.4 0 0 245.0291 148.5664
  A 0.95 0.77 -40.4 0 0 245.2535 147.3643
  Z
  M 258.1548 154.4050
  A 5.90 5.06 -5.3 0 0 251.8126 149.9116
  A 5.90 5.06 -5.3 0 0 246.4052 155.4950
  A 5.90 5.06 -5.3 0 0 252.7474 159.9884
  A 5.90 5.06 -5.3 0 0 258.1548 154.4050
  Z"
/>
<circle fill="#05294d" cx="219.79" cy="150.51" r="6.62"/>
<circle fill="#05294d" cx="284.43" cy="150.51" r="6.61"/>
<ellipse fill="#a2c4e0" cx="0.00" cy="0.00" transform="translate(244.53,147.98) rotate(-40.4)" rx="0.95" ry="0.77"/>
<ellipse fill="#46d8ee" cx="0.00" cy="0.00" transform="translate(252.28,154.95) rotate(-5.3)" rx="5.90" ry="5.06"/>
<ellipse fill="#051e38" cx="0.00" cy="0.00" transform="translate(307.31,157.31) rotate(-3.9)" rx="3.42" ry="3.24"/>
<ellipse fill="#051e38" cx="0.00" cy="0.00" transform="translate(196.53,157.32) rotate(-5.9)" rx="3.32" ry="3.08"/>
<path fill="#051e38" d="
  M 200.92 173.64
  A 1.20 1.18 57.8 0 0 200.61 175.05
  Q 204.61 183.76 198.59 191.12
  Q 194.43 196.20 187.50 196.65
  A 2.22 2.22 0.0 0 0 185.52 198.23
  C 184.91 200.33 184.07 204.63 181.51 203.85
  A 2.15 1.97 -76.3 0 1 180.19 201.44
  L 181.12 196.47
  A 1.35 1.18 -71.1 0 0 180.56 195.10
  Q 176.81 192.99 173.98 188.70
  A 1.32 1.32 0.0 0 0 171.76 188.73
  Q 170.78 190.31 169.28 193.46
  Q 168.22 195.70 165.55 196.26
  Q 161.28 197.14 158.73 193.92
  C 155.18 189.44 159.14 182.55 164.94 183.31
  C 166.16 183.47 167.12 184.17 168.28 184.61
  Q 168.74 184.78 169.21 184.63
  C 172.76 183.43 171.81 179.09 172.57 176.87
  Q 175.42 168.48 183.24 166.41
  C 188.19 165.09 193.08 166.26 196.85 169.67
  A 1.06 1.05 45.6 0 0 198.24 169.69
  L 201.63 166.86
  Q 202.02 166.53 202.19 166.05
  C 202.60 164.89 202.80 163.14 203.51 162.29
  Q 206.43 158.74 210.68 159.92
  C 219.47 162.36 214.55 176.70 204.96 171.03
  Q 204.42 170.71 203.95 171.11
  L 200.92 173.64
  Z
  M 194.31 188.47
  A 10.56 10.26 89.9 0 0 197.07 179.52
  A 10.54 10.23 89.4 0 0 191.87 171.88
  A 10.55 10.25 87.3 0 0 181.15 172.42
  A 10.56 10.26 89.3 0 0 176.69 181.26
  A 10.54 10.24 89.7 0 0 180.60 189.40
  A 10.55 10.25 88.9 0 0 194.31 188.47
  Z"
/>
<path fill="#051e38" d="
  M 330.20 188.49
  Q 326.56 192.97 322.95 195.16
  A 1.02 1.02 0.0 0 0 322.50 196.33
  C 323.00 197.99 324.15 201.38 323.08 203.04
  A 1.57 1.57 0.0 0 1 320.86 203.47
  C 319.23 202.31 318.94 199.60 318.34 197.81
  A 2.02 2.01 -8.6 0 0 316.47 196.44
  C 307.04 196.24 299.36 187.67 302.09 177.66
  Q 302.42 176.43 302.70 174.86
  Q 302.79 174.35 302.54 173.91
  Q 301.49 172.08 299.66 171.02
  Q 299.22 170.76 298.77 171.00
  Q 297.06 171.93 296.95 171.99
  Q 296.02 172.48 295.10 172.46
  Q 290.15 172.39 288.84 168.20
  C 286.46 160.59 296.40 156.34 300.44 162.84
  C 301.23 164.11 301.28 166.61 302.71 167.66
  Q 304.00 168.59 305.28 169.70
  A 1.13 0.89 -28.9 0 0 306.25 169.86
  Q 306.42 169.81 309.07 168.07
  C 313.89 164.91 319.78 165.10 324.66 168.24
  Q 331.37 172.56 331.86 181.22
  Q 331.93 182.52 332.39 183.18
  C 334.06 185.54 335.61 184.50 337.65 183.63
  C 340.15 182.57 342.83 183.60 344.37 185.72
  Q 347.58 190.13 343.96 194.46
  Q 342.81 195.84 341.19 196.16
  C 337.49 196.89 334.48 195.60 333.27 191.98
  Q 332.43 189.46 331.12 188.40
  Q 330.61 187.98 330.20 188.49
  Z
  M 323.69 188.54
  A 10.59 10.36 -65.9 0 0 326.19 177.27
  A 10.57 10.33 -66.3 0 0 319.36 170.92
  A 10.58 10.35 -66.1 0 0 309.55 173.30
  A 10.60 10.37 -66.6 0 0 306.18 183.06
  A 10.59 10.35 -66.1 0 0 313.10 191.15
  A 10.59 10.37 -66.1 0 0 323.69 188.54
  Z"
/>
<circle fill="#051e38" cx="225.74" cy="173.04" r="5.50"/>
<circle fill="#051e38" cx="277.89" cy="173.04" r="5.36"/>
<path fill="#46d8ee" d="
  M 197.07 179.52
  Q 195.66 178.38 194.43 177.10
  Q 192.78 175.38 191.77 174.76
  Q 185.91 171.13 181.02 175.48
  Q 179.05 177.23 178.55 179.61
  C 177.68 183.80 180.14 187.85 184.08 189.49
  Q 188.39 191.27 193.61 187.72
  Q 194.13 187.36 194.09 187.97
  Q 194.09 188.11 194.31 188.47
  A 10.55 10.25 88.9 0 1 180.60 189.40
  A 10.54 10.24 89.7 0 1 176.69 181.26
  A 10.56 10.26 89.3 0 1 181.15 172.42
  A 10.55 10.25 87.3 0 1 191.87 171.88
  A 10.54 10.23 89.4 0 1 197.07 179.52
  Z"
/>
<path fill="#46d8ee" d="
  M 326.19 177.27
  Q 324.68 177.40 323.02 175.84
  Q 321.20 174.13 320.37 173.83
  C 316.57 172.48 311.91 173.51 309.56 176.90
  C 306.24 181.68 308.37 187.22 313.51 189.30
  Q 317.96 191.11 323.69 188.54
  A 10.59 10.37 -66.1 0 1 313.10 191.15
  A 10.59 10.35 -66.1 0 1 306.18 183.06
  A 10.60 10.37 -66.6 0 1 309.55 173.30
  A 10.58 10.35 -66.1 0 1 319.36 170.92
  A 10.57 10.33 -66.3 0 1 326.19 177.27
  Z"
/>
<path fill="#087cca" d="
  M 197.07 179.52
  A 10.56 10.26 89.9 0 1 194.31 188.47
  Q 194.09 188.11 194.09 187.97
  Q 194.13 187.36 193.61 187.72
  Q 188.39 191.27 184.08 189.49
  C 180.14 187.85 177.68 183.80 178.55 179.61
  Q 179.05 177.23 181.02 175.48
  Q 185.91 171.13 191.77 174.76
  Q 192.78 175.38 194.43 177.10
  Q 195.66 178.38 197.07 179.52
  Z"
/>
<path fill="#087cca" d="
  M 326.19 177.27
  A 10.59 10.36 -65.9 0 1 323.69 188.54
  Q 317.96 191.11 313.51 189.30
  C 308.37 187.22 306.24 181.68 309.56 176.90
  C 311.91 173.51 316.57 172.48 320.37 173.83
  Q 321.20 174.13 323.02 175.84
  Q 324.68 177.40 326.19 177.27
  Z"
/>
<path fill="#051e38" d="
  M 226.58 200.85
  Q 227.26 200.85 228.39 200.09
  Q 229.95 199.01 232.32 196.97
  Q 233.72 195.75 235.57 195.75
  L 244.97 195.75
  Q 246.70 195.75 245.39 196.89
  Q 241.49 200.26 235.19 206.44
  C 233.45 208.15 232.03 208.57 229.45 208.58
  Q 219.93 208.62 215.49 208.57
  Q 211.86 208.53 212.14 204.91
  Q 212.14 204.81 212.16 204.60
  Q 212.40 200.97 216.04 200.90
  Q 219.91 200.83 226.58 200.85
  Z"
/>
<path fill="#051e38" d="
  M 275.84 200.33
  Q 276.17 200.60 279.64 201.88
  Q 280.16 202.07 281.33 203.23
  Q 293.77 215.59 296.87 218.79
  Q 299.42 221.42 296.86 224.03
  Q 296.70 224.19 296.64 224.22
  A 5.20 5.13 -40.6 0 1 290.48 223.79
  Q 283.02 217.33 277.07 211.13
  Q 275.96 209.98 273.26 208.99
  Q 270.85 208.11 269.63 206.95
  Q 263.08 200.72 259.66 197.13
  Q 258.38 195.78 260.24 195.78
  L 269.29 195.78
  A 4.45 4.45 0.0 0 1 272.63 197.29
  Q 273.78 198.60 275.84 200.33
  Z"
/>
<circle fill="#051e38" cx="252.15" cy="211.30" r="10.46"/>
<circle fill="#051e38" cx="266.83" cy="222.19" r="2.91"/>
<circle fill="#051e38" cx="277.58" cy="222.21" r="2.93"/>
<circle fill="#051e38" cx="304.97" cy="222.18" r="2.90"/>
<path fill="#051e38" d="
  M 127.78 244.47
  Q 127.79 244.60 127.80 244.75
  Q 127.88 246.84 129.97 246.73
  Q 140.55 246.16 140.58 247.22
  Q 140.66 250.69 140.58 254.06
  A 0.74 0.73 0.8 0 1 139.84 254.77
  L 129.61 254.77
  Q 127.93 254.77 127.93 256.45
  L 127.93 258.86
  Q 127.93 260.36 129.44 260.36
  L 150.99 260.36
  Q 152.09 260.36 152.09 261.46
  L 152.09 267.74
  A 1.19 1.19 0.0 0 1 150.91 268.93
  Q 130.74 269.19 123.98 268.85
  Q 118.82 268.60 118.59 262.69
  Q 118.20 252.35 118.74 239.55
  C 119.03 232.82 125.91 233.71 130.85 233.66
  Q 140.73 233.57 150.71 233.69
  Q 152.03 233.71 152.03 235.03
  L 152.03 240.89
  Q 152.03 242.34 150.58 242.34
  L 129.74 242.34
  Q 127.61 242.34 127.78 244.47
  Z"
/>
<path fill="#051e38" d="
  M 168.54 244.22
  Q 168.91 245.17 170.23 245.78
  Q 170.46 245.88 183.61 250.17
  Q 188.37 251.72 188.43 256.74
  C 188.47 259.84 188.73 262.83 187.70 265.07
  Q 185.91 268.96 180.00 269.02
  Q 170.79 269.11 159.35 268.98
  Q 157.94 268.96 157.94 267.56
  L 157.94 261.82
  Q 157.94 260.35 159.41 260.36
  Q 169.56 260.41 177.02 260.37
  Q 179.42 260.36 178.78 258.25
  A 1.72 1.69 0.5 0 0 177.65 257.12
  Q 169.61 254.65 164.68 253.11
  C 162.07 252.30 159.29 251.18 159.14 248.10
  Q 159.00 245.11 159.04 243.13
  Q 159.13 238.97 159.25 238.39
  Q 159.81 235.61 162.50 234.47
  Q 164.29 233.71 169.07 233.67
  Q 177.98 233.59 187.15 233.66
  Q 188.39 233.66 188.39 234.90
  L 188.39 240.96
  Q 188.39 242.32 187.03 242.32
  L 169.84 242.32
  A 1.40 1.39 79.5 0 0 168.54 244.22
  Z"
/>
<path fill="#051e38" d="
  M 231.03 261.37
  L 231.03 268.02
  A 0.99 0.99 0.0 0 1 230.04 269.01
  L 197.75 269.01
  A 0.99 0.99 0.0 0 1 196.76 268.02
  L 196.76 234.65
  A 0.99 0.99 0.0 0 1 197.75 233.66
  L 230.02 233.66
  A 0.99 0.99 0.0 0 1 231.01 234.65
  L 231.01 241.34
  A 0.99 0.99 0.0 0 1 230.02 242.33
  L 207.08 242.33
  A 0.99 0.99 0.0 0 0 206.09 243.32
  L 206.09 245.61
  A 0.99 0.99 0.0 0 0 207.08 246.60
  L 218.00 246.60
  A 0.99 0.99 0.0 0 1 218.99 247.59
  L 218.99 253.79
  A 0.99 0.99 0.0 0 1 218.00 254.78
  L 207.10 254.78
  A 0.99 0.99 0.0 0 0 206.11 255.77
  L 206.11 259.39
  A 0.99 0.99 0.0 0 0 207.10 260.38
  L 230.04 260.38
  A 0.99 0.99 0.0 0 1 231.03 261.37
  Z"
/>
<path fill="#051e38" d="
  M 293.41 251.33
  Q 293.42 255.63 293.43 257.55
  Q 293.46 260.31 296.22 260.31
  L 313.26 260.31
  Q 314.95 260.31 314.95 262.00
  L 314.95 267.41
  Q 314.95 268.96 313.39 268.98
  Q 304.28 269.05 295.51 269.00
  Q 290.66 268.97 288.98 268.27
  Q 284.68 266.48 284.34 261.74
  Q 284.21 259.87 284.21 251.33
  Q 284.20 242.79 284.33 240.92
  Q 284.67 236.18 288.96 234.39
  Q 290.64 233.69 295.49 233.65
  Q 304.26 233.60 313.37 233.66
  Q 314.93 233.68 314.94 235.23
  L 314.94 240.64
  Q 314.94 242.33 313.25 242.33
  L 296.21 242.34
  Q 293.45 242.35 293.43 245.10
  Q 293.41 247.03 293.41 251.33
  Z"
/>
<path fill="#051e38" d="
  M 263.58 251.18
  A 0.52 0.51 -69.1 0 0 264.44 250.79
  L 264.44 234.67
  Q 264.44 233.73 265.39 233.73
  L 273.97 233.73
  A 0.99 0.99 0.0 0 1 274.96 234.72
  L 274.96 268.00
  A 1.03 1.03 0.0 0 1 273.93 269.03
  L 266.77 269.03
  A 2.37 2.37 0.0 0 1 264.95 268.18
  L 250.29 250.67
  A 0.51 0.50 -65.1 0 0 249.40 251.00
  L 249.40 268.15
  Q 249.40 268.99 248.56 268.99
  L 241.15 268.99
  Q 239.99 268.99 239.99 267.84
  L 239.99 235.08
  A 1.23 1.23 0.0 0 1 241.19 233.85
  Q 244.99 233.76 248.50 233.80
  Q 249.51 233.82 250.45 235.07
  Q 251.22 236.09 251.26 236.13
  Q 260.90 247.90 262.64 250.13
  Q 263.18 250.82 263.58 251.18
  Z"
/>
<rect fill="#051e38" x="-4.63" y="-17.61" transform="translate(325.03,251.31) rotate(0.1)" width="9.26" height="35.22" rx="1.23"/>
<path fill="#051629" d="
  M 353.85 233.79
  Q 355.99 233.79 358.06 233.89
  A 1.79 1.79 0.0 0 1 359.61 234.95
  L 374.52 268.42
  A 0.47 0.47 0.0 0 1 374.09 269.09
  L 365.55 269.09
  A 1.13 1.12 77.7 0 1 364.53 268.43
  L 363.44 265.99
  A 1.48 1.48 0.0 0 0 362.02 265.11
  Q 357.91 265.30 353.71 265.28
  Q 349.52 265.26 345.41 265.04
  A 1.48 1.48 0.0 0 0 343.98 265.90
  L 342.87 268.33
  A 1.13 1.12 -77.2 0 1 341.84 268.98
  L 333.30 268.91
  A 0.47 0.47 0.0 0 1 332.88 268.24
  L 348.09 234.90
  A 1.79 1.79 0.0 0 1 349.65 233.85
  Q 351.71 233.78 353.85 233.79
  Z
  M 348.26 256.30
  A 0.66 0.66 0.0 0 0 348.86 257.23
  L 358.57 257.26
  A 0.66 0.66 0.0 0 0 359.18 256.34
  L 354.36 245.18
  A 0.66 0.66 0.0 0 0 353.15 245.17
  L 348.26 256.30
  Z"
/>
<path fill="#051629" d="
  M 158.72 290.85
  Q 158.17 290.49 157.93 291.11
  L 157.78 291.48
  Q 157.70 291.68 157.86 291.81
  Q 159.56 293.22 162.91 295.83
  C 163.92 296.61 165.02 298.25 165.07 299.84
  Q 165.12 301.79 165.57 302.93
  A 1.30 1.27 88.2 0 0 166.34 303.67
  Q 168.47 304.40 169.87 305.75
  Q 170.39 306.25 171.03 308.37
  Q 171.48 309.84 172.27 311.08
  A 1.48 1.48 0.0 0 0 174.74 311.12
  Q 177.20 307.54 181.04 305.36
  A 1.48 1.48 0.0 0 0 181.75 303.76
  L 181.05 300.53
  A 1.92 1.92 0.0 0 1 182.37 298.27
  Q 183.46 297.94 184.35 298.40
  Q 184.92 298.70 185.33 299.87
  Q 185.86 301.39 186.39 303.13
  A 1.36 1.35 -5.4 0 0 187.56 304.09
  Q 197.57 305.08 201.36 314.37
  Q 203.43 319.46 201.14 325.29
  Q 200.95 325.76 201.09 326.25
  Q 201.63 328.20 203.36 328.68
  Q 204.19 328.91 206.18 328.19
  Q 209.38 327.05 211.55 330.26
  Q 212.96 332.34 211.09 335.40
  A 0.92 0.91 45.8 0 0 211.08 336.33
  Q 211.91 337.80 214.31 339.06
  Q 214.77 339.29 215.24 339.10
  C 216.26 338.68 217.22 337.88 218.23 337.66
  Q 223.56 336.53 225.93 340.47
  C 229.95 347.16 220.98 353.80 215.42 348.47
  C 214.05 347.16 213.68 343.91 212.52 343.04
  Q 205.34 337.66 198.52 331.20
  A 1.14 1.13 47.5 0 0 197.03 331.13
  C 190.32 336.47 181.54 336.08 175.91 329.58
  Q 171.99 325.06 172.03 318.60
  C 172.04 317.02 171.41 315.71 169.90 315.33
  Q 169.40 315.20 168.93 315.41
  Q 166.25 316.59 165.74 316.61
  Q 159.56 316.93 158.44 311.34
  C 157.99 309.09 159.01 307.14 160.48 305.51
  A 1.56 1.56 0.0 0 0 160.35 303.28
  Q 156.08 299.55 149.15 295.45
  Q 147.68 294.58 146.44 292.10
  Q 145.87 290.98 145.92 287.13
  Q 145.95 285.36 144.17 285.36
  L 137.07 285.36
  Q 135.37 285.36 136.02 286.93
  Q 137.58 290.66 137.74 291.84
  Q 138.22 295.36 134.50 296.04
  Q 130.59 296.76 129.02 292.98
  Q 127.77 289.98 126.21 285.45
  A 2.55 2.54 0.3 0 0 124.66 283.89
  L 120.74 282.50
  Q 119.54 282.07 119.84 283.31
  Q 120.59 286.39 120.74 288.75
  C 120.85 290.57 119.65 292.02 117.83 292.42
  Q 113.89 293.29 112.22 288.85
  Q 107.68 276.80 105.39 264.17
  C 104.98 261.91 105.13 260.10 107.27 259.02
  C 110.96 257.16 113.35 259.48 114.64 263.03
  C 116.96 269.40 120.83 273.89 127.36 275.96
  Q 130.52 276.96 138.62 276.92
  Q 170.16 276.75 189.57 276.85
  Q 192.38 276.87 192.31 279.45
  Q 192.31 279.46 192.28 279.71
  Q 191.98 282.14 189.49 282.15
  L 163.23 282.19
  Q 162.38 282.20 162.51 283.01
  Q 162.55 283.26 162.72 283.43
  A 2.68 1.48 56.2 0 0 164.33 284.26
  Q 187.01 284.35 190.50 284.38
  C 192.12 284.39 193.65 285.38 194.88 286.64
  Q 200.21 292.06 205.76 297.24
  Q 206.68 298.10 207.80 298.55
  Q 208.66 298.90 210.14 298.90
  Q 218.07 298.90 237.67 298.83
  A 1.17 1.16 70.2 0 1 238.57 299.26
  Q 239.06 299.87 239.30 301.00
  Q 239.40 301.48 239.74 301.83
  C 240.62 302.72 242.36 303.15 243.26 303.97
  Q 245.88 306.37 244.99 310.29
  Q 244.00 314.73 239.37 315.80
  C 233.94 317.06 229.90 312.86 230.00 307.49
  A 0.66 0.65 -89.6 0 0 229.35 306.82
  Q 217.26 306.77 207.35 306.92
  Q 202.46 306.99 199.93 304.27
  Q 199.20 303.48 187.98 292.49
  A 3.96 3.90 66.3 0 0 185.17 291.37
  Q 173.96 291.58 160.50 291.33
  Q 159.46 291.32 158.72 290.85
  Z
  M 157.2534 290.9347
  A 1.66 0.63 54.1 0 0 156.7903 289.2206
  A 1.66 0.63 54.1 0 0 155.3066 288.2453
  A 1.66 0.63 54.1 0 0 155.7697 289.9594
  A 1.66 0.63 54.1 0 0 157.2534 290.9347
  Z
  M 196.75 323.14
  A 10.80 10.39 -70.4 0 0 197.50 318.39
  A 10.76 10.37 -77.0 0 0 194.34 311.40
  A 10.73 10.35 -78.2 0 0 184.68 308.88
  A 10.76 10.37 -77.2 0 0 178.32 313.78
  A 10.73 10.35 -77.0 0 0 177.69 323.78
  A 10.74 10.35 -77.7 0 0 187.99 329.91
  A 10.71 10.36 -76.9 0 0 196.75 323.14
  Z"
/>
<path fill="#051629" d="
  M 369.94 286.26
  Q 370.13 285.62 369.47 285.62
  L 359.37 285.62
  A 0.89 0.89 0.0 0 0 358.48 286.49
  C 358.42 289.49 358.91 292.69 356.01 294.76
  Q 353.09 296.85 347.00 300.99
  Q 345.35 302.12 344.07 303.81
  A 0.84 0.84 0.0 0 0 343.97 304.67
  C 344.94 306.84 346.80 309.61 345.24 312.84
  Q 342.37 318.75 335.43 315.51
  Q 334.98 315.30 334.50 315.43
  Q 332.33 315.99 332.38 317.58
  Q 332.59 324.69 328.68 329.31
  C 323.01 336.02 313.89 336.81 307.02 331.05
  A 1.41 1.41 0.0 0 0 305.11 331.13
  Q 298.80 337.37 292.36 342.36
  Q 291.32 343.16 290.62 346.32
  Q 290.18 348.34 287.03 349.77
  Q 282.29 351.93 279.05 347.73
  C 277.03 345.11 277.29 341.74 279.67 339.33
  Q 283.45 335.51 288.86 338.82
  Q 289.30 339.09 289.79 338.92
  Q 291.80 338.20 292.95 336.32
  Q 293.20 335.90 292.98 335.47
  C 291.09 331.73 292.26 328.36 296.70 327.79
  Q 297.21 327.73 297.67 327.97
  C 299.78 329.10 302.19 328.83 302.97 326.54
  A 1.38 1.38 0.0 0 0 302.97 325.60
  C 299.29 315.04 305.23 305.52 316.26 304.12
  A 2.48 2.45 -83.7 0 0 318.27 302.49
  L 319.40 299.32
  Q 319.88 297.99 321.28 298.16
  L 321.92 298.24
  A 1.67 1.67 0.0 0 1 323.28 300.46
  L 322.35 303.06
  A 1.99 1.98 -67.5 0 0 323.36 305.51
  Q 327.11 307.34 330.00 311.12
  Q 330.28 311.50 330.73 311.37
  Q 332.83 310.81 333.01 309.66
  Q 333.69 305.10 337.92 303.90
  A 1.74 1.74 0.0 0 0 339.16 302.44
  C 339.51 299.46 339.59 298.04 341.96 295.93
  Q 345.56 292.71 349.17 289.11
  A 0.27 0.27 0.0 0 0 349.17 288.73
  L 348.84 288.42
  A 0.55 0.55 0.0 0 0 348.05 288.45
  Q 345.57 291.27 343.75 291.31
  Q 328.81 291.64 320.25 291.46
  Q 317.63 291.41 316.38 292.63
  Q 309.15 299.76 301.81 306.11
  A 2.76 2.72 24.2 0 1 300.01 306.78
  L 275.31 306.78
  Q 274.72 306.78 274.60 307.36
  C 274.30 308.83 274.50 310.69 273.70 311.99
  C 271.26 315.96 266.12 317.40 262.23 314.65
  Q 259.50 312.71 259.39 309.09
  Q 259.25 304.64 263.03 302.83
  Q 264.28 302.23 264.66 301.84
  Q 265.39 301.09 265.54 300.08
  A 1.44 1.44 0.0 0 1 266.96 298.86
  L 295.16 298.86
  A 4.64 4.62 -66.2 0 0 298.29 297.64
  L 311.62 285.35
  A 3.82 3.82 0.0 0 1 314.22 284.33
  Q 320.30 284.32 338.89 284.45
  Q 340.27 284.46 342.76 282.01
  C 344.66 280.14 346.33 276.99 350.04 276.97
  Q 364.43 276.88 371.02 276.90
  Q 382.85 276.92 388.26 266.86
  Q 388.97 265.54 390.19 262.95
  Q 391.56 260.01 392.29 259.44
  C 394.52 257.71 398.13 258.11 399.31 260.98
  Q 399.91 262.45 399.02 267.00
  Q 397.07 276.99 393.52 287.77
  C 392.74 290.12 391.35 292.50 388.55 292.49
  C 384.99 292.48 384.39 289.92 384.92 286.98
  Q 385.15 285.65 385.57 283.36
  Q 385.85 281.82 384.37 282.37
  L 381.56 283.41
  A 3.41 3.16 -89.0 0 0 379.64 285.41
  L 376.91 293.09
  Q 375.66 296.59 371.61 296.12
  Q 371.53 296.11 371.45 296.10
  Q 367.31 295.12 368.43 291.36
  L 369.94 286.26
  Z
  M 325.64 324.82
  A 10.73 10.42 -79.4 0 0 326.91 316.63
  A 10.72 10.43 -77.8 0 0 322.63 310.35
  A 10.82 10.50 -77.3 0 0 317.99 308.63
  A 10.73 10.43 -78.4 0 0 307.86 313.82
  A 10.74 10.43 -78.2 0 0 310.53 327.97
  A 10.80 10.44 -85.7 0 0 315.25 329.92
  A 10.72 10.42 -78.3 0 0 325.64 324.82
  Z"
/>
<path fill="#051629" d="
  M 222.34 284.09
  Q 224.25 284.29 226.21 283.62
  C 228.96 282.69 231.74 279.18 233.61 277.87
  Q 237.11 275.42 240.44 277.65
  C 242.66 279.14 240.63 282.79 239.23 284.24
  C 235.87 287.71 232.14 292.01 228.00 291.97
  Q 218.62 291.86 216.98 291.87
  Q 216.37 291.87 215.13 291.12
  C 211.91 289.16 202.00 280.74 210.04 277.14
  Q 212.76 275.92 215.80 279.28
  C 218.25 281.98 219.22 283.76 222.34 284.09
  Z"
/>
<path fill="#051629" d="
  M 280.38 283.92
  C 285.99 284.75 287.60 282.25 291.58 278.08
  C 292.46 277.17 293.97 276.78 295.25 277.15
  Q 298.27 278.02 298.25 281.79
  C 298.22 285.32 295.48 286.91 292.61 289.35
  C 290.53 291.13 289.10 291.92 286.34 291.92
  Q 283.58 291.92 277.00 291.91
  Q 275.06 291.91 273.63 291.04
  Q 268.62 287.98 264.69 282.42
  Q 262.24 278.95 266.25 277.26
  L 266.59 277.12
  Q 270.51 275.47 273.63 278.66
  C 275.54 280.60 277.93 283.56 280.38 283.92
  Z"
/>
<ellipse fill="#051629" cx="0.00" cy="0.00" transform="translate(200.13,279.55) rotate(-3.8)" rx="2.98" ry="2.73"/>
<rect fill="#051629" x="-12.79" y="-2.65" transform="translate(316.35,279.52) rotate(0.1)" width="25.58" height="5.30" rx="2.54"/>
<circle fill="#051629" cx="252.28" cy="290.69" r="10.53"/>
<ellipse fill="#7895b2" cx="0.00" cy="0.00" transform="translate(156.28,289.59) rotate(54.1)" rx="1.66" ry="0.63"/>
<path fill="#051629" d="
  M 367.85 310.83
  Q 366.19 313.56 364.68 316.38
  Q 362.86 319.78 361.29 321.74
  Q 353.89 330.96 346.84 338.46
  Q 343.77 341.71 339.11 345.43
  Q 333.58 349.83 330.87 351.85
  Q 322.77 357.90 314.94 362.29
  Q 312.44 363.70 309.36 364.82
  C 304.79 366.48 299.73 368.96 295.12 370.52
  Q 278.57 376.14 263.51 377.49
  Q 242.90 379.33 222.12 373.88
  C 207.49 370.04 191.15 363.43 179.37 355.01
  Q 172.65 350.21 163.28 342.41
  Q 159.02 338.87 155.01 333.98
  Q 153.10 331.64 147.21 324.82
  Q 143.79 320.85 140.76 315.93
  Q 137.93 311.32 135.28 306.51
  Q 134.77 304.05 134.87 302.49
  Q 134.99 300.40 137.00 299.70
  Q 141.13 298.25 143.26 302.04
  Q 148.49 311.33 153.17 317.77
  Q 157.08 323.15 162.87 329.10
  Q 183.55 350.36 211.48 361.15
  Q 218.40 363.82 226.02 365.53
  Q 235.26 367.60 241.01 368.23
  Q 250.67 369.29 263.60 368.33
  Q 267.94 368.01 278.80 365.73
  Q 287.90 363.83 293.59 361.68
  Q 321.38 351.18 342.21 329.67
  Q 345.75 326.02 350.18 320.69
  Q 356.07 313.61 362.01 302.78
  C 363.86 299.42 367.51 297.77 370.16 301.19
  Q 371.55 302.99 370.27 305.72
  Q 369.03 308.36 367.85 310.83
  Z"
/>
<path fill="#051629" d="
  M 131.85 308.05
  Q 136.58 316.91 141.26 323.24
  Q 147.57 331.77 156.93 341.33
  Q 165.10 349.68 182.29 361.24
  C 186.08 363.79 190.15 365.37 195.37 367.89
  Q 201.39 370.78 205.38 372.27
  C 224.39 379.35 244.75 382.81 264.76 380.69
  Q 284.79 378.57 303.64 370.89
  C 307.76 369.21 311.54 367.08 315.42 365.41
  Q 319.89 363.48 323.94 360.78
  Q 338.40 351.18 347.61 342.33
  Q 353.64 336.56 361.52 326.76
  Q 367.41 319.45 371.02 312.67
  L 376.09 304.17
  Q 378.24 300.57 381.87 302.34
  L 382.17 302.48
  Q 385.85 304.27 383.88 308.17
  Q 372.70 330.39 355.22 347.46
  Q 344.15 358.26 334.41 364.61
  Q 325.51 370.41 317.18 374.77
  Q 304.57 381.37 290.35 385.11
  Q 287.06 385.97 276.61 388.08
  Q 269.09 389.60 260.25 389.86
  Q 246.97 390.25 236.50 389.27
  Q 229.29 388.60 215.39 385.08
  Q 204.11 382.23 193.51 377.27
  Q 151.53 357.64 127.43 318.61
  Q 123.40 312.08 121.62 307.81
  C 119.07 301.69 127.22 299.41 129.86 304.45
  Q 131.32 307.24 131.85 308.05
  Z"
/>
<path fill="#7895b2" d="
  M 367.85 310.83
  Q 368.94 312.74 371.02 312.67
  Q 367.41 319.45 361.52 326.76
  Q 353.64 336.56 347.61 342.33
  Q 338.40 351.18 323.94 360.78
  Q 319.89 363.48 315.42 365.41
  C 311.54 367.08 307.76 369.21 303.64 370.89
  Q 284.79 378.57 264.76 380.69
  C 244.75 382.81 224.39 379.35 205.38 372.27
  Q 201.39 370.78 195.37 367.89
  C 190.15 365.37 186.08 363.79 182.29 361.24
  Q 165.10 349.68 156.93 341.33
  Q 147.57 331.77 141.26 323.24
  Q 136.58 316.91 131.85 308.05
  Q 134.10 308.20 135.28 306.51
  Q 137.93 311.32 140.76 315.93
  Q 143.79 320.85 147.21 324.82
  Q 153.10 331.64 155.01 333.98
  Q 159.02 338.87 163.28 342.41
  Q 172.65 350.21 179.37 355.01
  C 191.15 363.43 207.49 370.04 222.12 373.88
  Q 242.90 379.33 263.51 377.49
  Q 278.57 376.14 295.12 370.52
  C 299.73 368.96 304.79 366.48 309.36 364.82
  Q 312.44 363.70 314.94 362.29
  Q 322.77 357.90 330.87 351.85
  Q 333.58 349.83 339.11 345.43
  Q 343.77 341.71 346.84 338.46
  Q 353.89 330.96 361.29 321.74
  Q 362.86 319.78 364.68 316.38
  Q 366.19 313.56 367.85 310.83
  Z"
/>
<path fill="#46d8ee" d="
  M 197.50 318.39
  Q 195.91 316.89 194.73 315.37
  Q 193.06 313.22 191.89 312.55
  C 187.48 310.02 181.92 311.43 179.45 316.14
  C 176.69 321.41 180.66 327.29 186.01 328.15
  Q 191.57 329.04 196.75 323.14
  A 10.71 10.36 -76.9 0 1 187.99 329.91
  A 10.74 10.35 -77.7 0 1 177.69 323.78
  A 10.73 10.35 -77.0 0 1 178.32 313.78
  A 10.76 10.37 -77.2 0 1 184.68 308.88
  A 10.73 10.35 -78.2 0 1 194.34 311.40
  A 10.76 10.37 -77.0 0 1 197.50 318.39
  Z"
/>
<path fill="#46d8ee" d="
  M 326.91 316.63
  Q 326.82 316.91 326.73 317.09
  Q 326.54 317.49 326.19 317.23
  Q 325.60 316.79 325.44 316.51
  Q 321.52 309.54 314.82 311.59
  C 311.17 312.70 309.31 314.95 308.48 318.78
  Q 307.77 322.05 309.77 324.54
  Q 311.89 327.18 315.27 327.90
  Q 321.14 329.15 324.65 324.33
  A 0.43 0.43 0.0 0 1 325.35 324.35
  L 325.64 324.82
  A 10.72 10.42 -78.3 0 1 315.25 329.92
  A 10.80 10.44 -85.7 0 1 310.53 327.97
  A 10.74 10.43 -78.2 0 1 307.86 313.82
  A 10.73 10.43 -78.4 0 1 317.99 308.63
  A 10.82 10.50 -77.3 0 1 322.63 310.35
  A 10.72 10.43 -77.8 0 1 326.91 316.63
  Z"
/>
<path fill="#09377d" d="
  M 326.91 316.63
  A 10.73 10.42 -79.4 0 1 325.64 324.82
  L 325.35 324.35
  A 0.43 0.43 0.0 0 0 324.65 324.33
  Q 321.14 329.15 315.27 327.90
  Q 311.89 327.18 309.77 324.54
  Q 307.77 322.05 308.48 318.78
  C 309.31 314.95 311.17 312.70 314.82 311.59
  Q 321.52 309.54 325.44 316.51
  Q 325.60 316.79 326.19 317.23
  Q 326.54 317.49 326.73 317.09
  Q 326.82 316.91 326.91 316.63
  Z
  M 313.78 321.79
  A 4.14 3.65 -66.3 0 0 314.88 323.61
  A 4.13 3.67 -65.7 0 0 320.45 322.41
  A 4.13 3.66 -65.6 0 0 319.79 317.03
  A 4.19 3.71 -69.2 0 0 318.52 316.41
  A 4.13 3.66 -65.5 0 0 313.78 321.79
  Z"
/>
<path fill="#09377d" d="
  M 197.50 318.39
  A 10.80 10.39 -70.4 0 1 196.75 323.14
  Q 191.57 329.04 186.01 328.15
  C 180.66 327.29 176.69 321.41 179.45 316.14
  C 181.92 311.43 187.48 310.02 191.89 312.55
  Q 193.06 313.22 194.73 315.37
  Q 195.91 316.89 197.50 318.39
  Z
  M 183.62 321.97
  A 3.96 3.61 -18.6 0 0 190.62 321.54
  A 3.95 3.60 -19.3 0 0 188.98 316.82
  A 3.97 3.61 -18.4 0 0 183.71 318.46
  A 3.97 3.61 -19.7 0 0 183.62 321.97
  Z"
/>
<path fill="#051629" d="
  M 245.30 322.15
  Q 244.23 323.83 242.60 324.96
  Q 240.11 326.70 239.59 327.26
  Q 234.08 333.13 234.17 340.57
  Q 233.39 348.96 236.16 353.30
  Q 242.43 363.10 252.58 362.63
  Q 259.78 362.29 264.58 357.68
  Q 269.63 352.83 270.05 344.73
  Q 272.66 333.11 263.23 325.54
  Q 262.14 324.65 259.50 323.43
  Q 257.54 322.51 255.77 321.24
  Q 262.85 322.04 268.30 327.30
  A 1.28 1.28 0.0 0 0 270.00 327.37
  Q 273.17 324.74 277.56 321.81
  Q 278.47 321.20 279.27 320.32
  C 280.40 319.10 280.15 316.84 280.77 315.57
  C 283.19 310.55 289.33 311.83 290.66 316.62
  C 291.46 319.50 289.63 322.35 286.71 323.04
  C 285.57 323.32 284.32 323.64 283.31 324.64
  C 279.18 328.75 277.22 330.73 273.05 332.59
  A 1.32 1.31 70.2 0 0 272.33 334.14
  C 273.25 337.50 274.60 341.56 274.03 345.04
  Q 273.09 350.78 271.47 353.97
  C 267.32 362.18 259.28 366.11 250.28 365.43
  Q 244.80 365.01 241.02 362.59
  Q 234.02 358.11 231.32 349.47
  Q 229.14 342.50 232.11 334.89
  A 1.71 1.71 0.0 0 0 230.94 332.61
  C 226.88 331.56 224.74 328.77 220.28 324.68
  C 218.86 323.37 217.82 323.18 216.23 322.56
  C 214.39 321.85 213.43 319.61 213.53 317.80
  C 213.71 314.49 216.61 311.65 220.03 312.66
  C 223.13 313.57 223.66 315.36 224.21 318.31
  C 224.46 319.63 225.40 320.77 226.33 321.44
  Q 230.81 324.67 234.00 327.58
  A 1.75 1.74 -47.9 0 0 236.48 327.45
  Q 239.93 323.56 245.30 322.15
  Z"
/>
<path fill="#a2c4e0" d="
  M 318.52 316.41
  Q 318.79 316.47 318.94 316.59
  Q 319.41 316.94 318.96 317.33
  L 313.78 321.79
  A 4.13 3.66 -65.5 0 1 318.52 316.41
  Z"
/>
<path fill="#087cca" d="
  M 313.78 321.79
  L 318.96 317.33
  Q 319.41 316.94 318.94 316.59
  Q 318.79 316.47 318.52 316.41
  A 4.19 3.71 -69.2 0 1 319.79 317.03
  A 4.13 3.66 -65.6 0 1 320.45 322.41
  A 4.13 3.67 -65.7 0 1 314.88 323.61
  A 4.14 3.65 -66.3 0 1 313.78 321.79
  Z"
/>
<path fill="#46d8ee" d="
  M 188.98 316.82
  Q 189.28 317.95 186.66 319.05
  Q 186.21 319.24 185.88 319.59
  L 183.62 321.97
  A 3.97 3.61 -19.7 0 1 183.71 318.46
  A 3.97 3.61 -18.4 0 1 188.98 316.82
  Z"
/>
<path fill="#087cca" d="
  M 183.62 321.97
  L 185.88 319.59
  Q 186.21 319.24 186.66 319.05
  Q 189.28 317.95 188.98 316.82
  A 3.95 3.60 -19.3 0 1 190.62 321.54
  A 3.96 3.61 -18.6 0 1 183.62 321.97
  Z"
/>
<path fill="#09377d" d="
  M 255.77 321.24
  Q 257.54 322.51 259.50 323.43
  Q 262.14 324.65 263.23 325.54
  Q 272.66 333.11 270.05 344.73
  Q 267.83 351.77 262.09 356.82
  Q 257.89 360.52 252.26 359.93
  Q 239.56 358.62 236.17 346.48
  Q 235.40 343.74 234.17 340.57
  Q 234.08 333.13 239.59 327.26
  Q 240.11 326.70 242.60 324.96
  Q 244.23 323.83 245.30 322.15
  Q 250.18 320.45 255.77 321.24
  Z
  M 240.10 338.15
  C 243.35 331.62 249.62 328.70 256.78 330.63
  C 260.19 331.54 262.98 335.40 264.43 338.38
  Q 265.36 340.30 265.45 338.09
  C 265.50 337.04 264.78 334.97 264.22 334.14
  Q 257.61 324.24 247.02 328.31
  C 242.43 330.08 239.01 333.49 238.85 338.40
  A 0.42 0.42 0.0 0 0 239.54 338.74
  Q 239.99 338.37 240.10 338.15
  Z
  M 258.5968 342.0691
  A 5.86 5.35 -5.1 0 0 252.2844 337.2612
  A 5.86 5.35 -5.1 0 0 246.9232 343.1109
  A 5.86 5.35 -5.1 0 0 253.2356 347.9188
  A 5.86 5.35 -5.1 0 0 258.5968 342.0691
  Z"
/>
<path fill="#46d8ee" d="
  M 256.78 330.63
  C 249.62 328.70 243.35 331.62 240.10 338.15
  Q 239.99 338.37 239.54 338.74
  A 0.42 0.42 0.0 0 1 238.85 338.40
  C 239.01 333.49 242.43 330.08 247.02 328.31
  Q 257.61 324.24 264.22 334.14
  C 264.78 334.97 265.50 337.04 265.45 338.09
  Q 265.36 340.30 264.43 338.38
  C 262.98 335.40 260.19 331.54 256.78 330.63
  Z"
/>
<ellipse fill="#087cca" cx="0.00" cy="0.00" transform="translate(252.76,342.59) rotate(-5.1)" rx="5.86" ry="5.35"/>
<path fill="#a2c4e0" d="
  M 270.05 344.73
  Q 269.63 352.83 264.58 357.68
  Q 259.78 362.29 252.58 362.63
  Q 242.43 363.10 236.16 353.30
  Q 233.39 348.96 234.17 340.57
  Q 235.40 343.74 236.17 346.48
  Q 239.56 358.62 252.26 359.93
  Q 257.89 360.52 262.09 356.82
  Q 267.83 351.77 270.05 344.73
  Z"
/>
</svg>
